<?xml version="1.0" standalone="no"?>
<!DOCTYPE svg PUBLIC "-//W3C//DTD SVG 20010904//EN"
 "http://www.w3.org/TR/2001/REC-SVG-20010904/DTD/svg10.dtd">
<svg version="1.0" xmlns="http://www.w3.org/2000/svg"
 width="992.000000pt" height="408.000000pt" viewBox="0 0 992.000000 408.000000"
 preserveAspectRatio="xMidYMid meet">
<metadata>
Created by potrace 1.15, written by Peter Selinger 2001-2017
</metadata>
<g transform="translate(0.000000,408.000000) scale(0.100000,-0.100000)"
fill="#000000" stroke="none">
<path d="M6723 4035 c-42 -18 -64 -54 -72 -117 -5 -45 -9 -53 -28 -56 -20 -3
-23 -9 -23 -53 0 -46 2 -49 25 -49 l25 0 0 -175 0 -175 65 0 65 0 2 173 3 172
43 3 42 3 0 50 c0 49 0 49 -33 49 -34 0 -57 15 -57 36 0 22 31 44 61 44 29 0
29 1 29 55 l0 55 -57 0 c-32 -1 -72 -7 -90 -15z"/>
<path d="M32 3728 l3 -313 145 0 c170 0 222 15 267 73 43 57 52 97 53 232 0
147 -10 190 -57 247 -48 60 -99 73 -275 73 l-138 0 2 -312z m263 172 c39 -15
55 -64 55 -175 0 -147 -23 -185 -114 -185 l-46 0 0 185 0 185 39 0 c22 0 51
-4 66 -10z"/>
<path d="M7730 3935 c0 -68 -2 -75 -20 -75 -17 0 -20 -7 -20 -50 0 -43 3 -50
20 -50 19 0 20 -7 20 -115 0 -131 11 -170 59 -204 23 -17 47 -23 94 -24 l62
-2 0 55 c0 55 0 55 -32 58 -41 4 -45 17 -41 137 l3 90 38 3 37 3 0 49 0 49
-37 3 -38 3 -3 73 -3 72 -69 0 -70 0 0 -75z"/>
<path d="M844 3876 c-98 -44 -141 -131 -131 -262 8 -104 40 -155 119 -189 79
-32 226 -11 267 39 13 15 11 21 -22 54 l-36 36 -36 -17 c-52 -25 -101 -22
-130 8 -14 13 -25 33 -25 45 0 19 6 20 140 20 l140 0 0 68 c0 83 -26 133 -88
175 -52 35 -147 46 -198 23z"/>
<path d="M1470 3884 c-93 -32 -130 -77 -130 -157 0 -80 61 -127 166 -127 27 0
50 -7 65 -20 l24 -20 -24 -20 c-30 -26 -85 -26 -134 -1 l-37 19 -40 -41 c-22
-22 -39 -45 -37 -51 2 -6 21 -20 43 -31 57 -28 188 -33 255 -9 73 27 99 64 99
141 0 57 -2 63 -35 92 -20 17 -37 31 -38 32 -1 0 -38 6 -82 12 -73 11 -80 14
-83 36 -6 41 47 54 112 27 33 -14 34 -14 76 29 l43 43 -44 23 c-43 22 -163 36
-199 23z"/>
<path d="M2399 3882 c-31 -14 -69 -50 -79 -76 -5 -15 -10 -80 -10 -144 0 -95
4 -124 18 -151 34 -64 114 -87 189 -56 19 8 40 15 45 15 18 0 -1 -64 -23 -82
-24 -20 -89 -24 -121 -7 -18 10 -26 5 -62 -31 l-41 -41 23 -19 c32 -26 85 -40
153 -40 80 0 154 40 186 99 22 43 23 52 23 288 l0 243 -65 0 c-51 0 -65 -3
-65 -15 0 -19 -3 -19 -42 5 -33 20 -97 26 -129 12z m138 -127 c44 -31 38 -161
-7 -185 -28 -15 -38 -12 -65 15 -20 19 -25 34 -25 74 0 79 15 104 65 110 6 0
20 -6 32 -14z"/>
<path d="M3127 3870 c-44 -24 -47 -24 -47 -5 0 12 -14 15 -65 15 l-65 0 0
-235 0 -236 66 3 66 3 -1 135 c-1 157 5 190 42 208 22 11 32 11 55 0 l27 -13
5 -165 5 -165 68 -3 67 -3 0 173 c0 214 -6 240 -68 279 -55 35 -102 37 -155 9z"/>
<path d="M4582 3864 c-74 -37 -94 -74 -100 -188 -5 -101 7 -159 40 -201 67
-85 249 -85 316 -1 35 45 45 91 40 195 -4 120 -24 157 -100 195 -68 34 -128
34 -196 0z m139 -113 c22 -17 24 -27 24 -99 0 -90 -17 -122 -65 -122 -38 0
-59 28 -66 87 -12 117 43 186 107 134z"/>
<path d="M5937 3870 c-44 -24 -47 -24 -47 -5 0 12 -14 15 -65 15 l-65 0 0
-235 0 -235 64 0 65 0 3 160 c2 131 6 162 19 176 19 18 52 22 87 10 19 -6 30
0 67 41 25 26 45 50 45 53 0 3 -13 13 -29 23 -39 23 -98 22 -144 -3z"/>
<path d="M7340 3738 c0 -161 -7 -194 -44 -204 -71 -18 -86 17 -86 202 l0 145
-66 -3 -66 -3 1 -184 c0 -156 3 -188 18 -214 36 -60 132 -85 197 -52 36 19 46
19 46 0 0 -12 14 -15 70 -15 l70 0 0 234 0 234 -70 4 -70 3 0 -147z"/>
<path d="M8997 3870 c-32 -18 -38 -18 -43 -5 -5 11 -22 15 -70 15 l-64 0 0
-235 0 -235 65 0 65 0 1 143 c1 78 4 153 8 167 10 35 50 53 90 39 30 -10 33
-9 76 38 24 26 44 51 45 54 0 13 -68 39 -102 39 -18 0 -50 -9 -71 -20z"/>
<path d="M9434 3864 c-75 -38 -112 -107 -113 -210 -2 -166 72 -244 235 -244
45 0 73 7 112 26 29 14 52 31 52 37 0 6 -16 28 -36 48 l-36 37 -32 -19 c-45
-27 -101 -25 -131 6 -14 13 -25 33 -25 45 0 19 6 20 146 20 l147 0 -5 63 c-5
64 -32 129 -65 159 -33 30 -107 58 -153 58 -30 0 -63 -9 -96 -26z"/>
<path d="M3870 3873 c0 -10 66 -195 115 -322 34 -88 36 -96 23 -130 -11 -30
-19 -37 -46 -39 l-32 -3 0 -65 0 -64 49 0 c49 0 104 27 122 60 9 16 54 132
152 395 l64 170 -70 3 c-38 2 -72 1 -74 -2 -3 -3 -20 -53 -38 -112 -18 -60
-37 -110 -42 -111 -5 -2 -24 47 -43 109 l-35 113 -73 3 c-39 2 -72 -1 -72 -5z"/>
<path d="M5110 3703 c0 -200 7 -229 69 -270 40 -27 112 -30 151 -8 33 19 50
19 50 0 0 -12 14 -15 65 -15 l65 0 0 235 0 235 -64 0 -65 0 -3 -154 c-3 -135
-5 -157 -22 -175 -11 -12 -31 -21 -46 -21 -15 0 -35 9 -46 21 -17 18 -19 40
-22 175 l-3 154 -65 0 -64 0 0 -177z"/>
<path d="M8172 3692 c3 -208 8 -224 71 -262 38 -24 111 -26 147 -5 33 19 50
19 50 0 0 -12 14 -15 65 -15 l65 0 0 235 0 235 -65 0 -65 0 0 -149 c0 -135 -2
-151 -21 -175 -24 -31 -68 -35 -92 -8 -14 16 -17 43 -17 175 l0 157 -71 0 -71
0 4 -188z"/>
<path d="M1940 3635 l0 -225 65 0 65 0 0 225 0 225 -65 0 -65 0 0 -225z"/>
<path d="M1927 2696 c-26 -19 -45 -21 -184 -25 l-155 -3 35 -29 c70 -58 67
-12 67 -983 0 -568 -3 -883 -10 -900 -5 -15 -24 -40 -41 -55 l-31 -29 28 -6
c80 -16 252 -37 378 -46 452 -30 777 102 948 387 59 98 87 202 95 348 10 190
-24 327 -113 462 -89 134 -195 212 -358 262 -130 40 -356 23 -394 -30 -32 -45
-132 -212 -129 -215 2 -2 28 6 58 18 76 29 223 36 309 14 109 -28 172 -73 241
-172 105 -152 119 -438 30 -612 -28 -54 -122 -155 -174 -185 -61 -36 -166 -66
-255 -73 -79 -6 -254 16 -293 37 -18 9 -19 38 -21 933 l-3 923 -28 -21z"/>
<path d="M5120 2696 c-30 -18 -56 -21 -184 -24 l-148 -4 40 -41 c23 -24 45
-59 51 -82 15 -55 15 -1705 0 -1759 -6 -21 -29 -58 -51 -82 l-41 -44 237 0
238 0 -30 25 c-16 14 -38 44 -48 67 -18 41 -19 95 -24 1004 l-5 960 -35 -20z"/>
<path d="M8740 2087 c-36 -16 -75 -21 -188 -25 l-142 -5 40 -43 c21 -23 43
-55 47 -71 10 -37 10 -1129 0 -1166 -4 -16 -26 -48 -49 -73 l-41 -44 244 0
243 0 -41 43 c-23 23 -47 56 -53 72 -15 38 -14 848 1 913 19 86 70 151 148
190 50 24 67 27 161 27 161 0 252 -42 313 -147 58 -100 60 -120 65 -543 2
-275 0 -401 -8 -428 -6 -22 -30 -59 -52 -83 l-41 -44 244 0 243 0 -31 29 c-17
15 -42 48 -55 72 -23 44 -23 44 -28 524 l-5 480 -37 76 c-23 47 -54 91 -82
117 -82 75 -234 137 -363 148 -104 8 -180 -7 -280 -56 -65 -32 -94 -54 -140
-106 l-58 -66 -5 115 -5 114 -45 -20z"/>
<path d="M517 2091 l-58 -6 -94 -139 c-52 -77 -93 -141 -92 -142 2 -2 47 15
101 37 162 67 292 85 404 55 154 -41 226 -149 170 -255 -37 -71 -110 -103
-343 -150 -188 -38 -340 -85 -402 -123 -56 -34 -118 -112 -138 -173 -25 -82
-18 -230 17 -305 75 -165 264 -271 483 -269 153 1 152 0 244 118 45 57 80 105
78 108 -2 2 -33 -4 -68 -14 -125 -33 -283 -15 -371 42 -107 70 -129 248 -42
344 44 50 104 75 288 121 83 21 171 45 196 55 25 9 53 19 63 22 16 5 17 -12
17 -272 0 -186 4 -291 12 -317 18 -62 100 -141 173 -167 95 -35 225 -54 225
-33 0 5 27 47 60 93 l60 84 -39 7 c-61 11 -139 48 -166 80 -44 52 -47 83 -54
498 l-6 395 -32 65 c-65 132 -141 188 -314 230 -85 20 -234 25 -372 11z"/>
<path d="M5930 2084 c-36 -7 -103 -28 -150 -46 -72 -27 -95 -42 -146 -94 -76
-76 -98 -133 -99 -249 0 -68 4 -89 28 -137 51 -104 158 -176 375 -252 257 -91
329 -124 376 -176 79 -88 53 -216 -56 -269 -84 -40 -164 -54 -283 -48 -152 7
-283 42 -417 111 l-107 55 19 -52 c11 -29 35 -92 54 -142 34 -89 34 -90 82
-109 91 -34 223 -56 345 -56 391 0 671 183 687 449 6 114 -14 175 -85 251 -68
74 -187 138 -358 193 -294 95 -365 136 -381 222 -29 154 252 226 522 133 54
-19 107 -38 117 -42 16 -8 17 1 17 112 l0 120 -32 11 c-107 33 -384 42 -508
15z"/>
<path d="M7340 2076 c-268 -71 -447 -233 -522 -476 -20 -65 -23 -96 -23 -225
0 -203 26 -284 136 -436 107 -146 295 -258 516 -305 176 -37 472 -14 597 47
46 23 53 31 117 152 38 71 69 130 69 133 0 3 -15 -6 -33 -20 -58 -45 -179 -93
-286 -116 -177 -38 -365 -17 -501 56 -111 60 -210 168 -250 273 -26 67 -55
230 -43 242 5 5 258 10 563 11 l555 3 -3 94 c-6 158 -59 270 -188 404 -78 80
-172 131 -308 166 -112 30 -280 28 -396 -3z m313 -181 c79 -20 148 -57 183
-97 34 -39 81 -131 90 -176 l7 -32 -403 0 -402 0 7 33 c19 93 96 191 188 238
92 48 225 61 330 34z"/>
<path d="M3101 2032 c59 -38 107 -94 137 -162 27 -60 128 -280 172 -375 16
-33 49 -107 75 -165 25 -58 57 -125 70 -151 13 -25 49 -103 80 -175 80 -183
84 -191 143 -254 28 -32 52 -64 52 -71 0 -23 -86 -222 -115 -269 -75 -118
-166 -180 -265 -180 -55 0 -127 25 -161 56 -15 13 -24 9 -95 -41 -44 -30 -103
-71 -131 -91 -29 -20 -53 -40 -53 -45 0 -13 127 -49 235 -65 182 -28 348 3
478 88 145 95 240 238 356 532 27 67 83 202 126 301 43 99 104 243 135 320 32
77 85 205 120 285 34 80 70 165 80 190 10 25 39 95 65 155 25 61 49 118 52
128 5 16 -9 17 -197 17 l-202 0 36 -40 c33 -37 36 -45 36 -100 0 -47 -11 -88
-51 -197 -28 -76 -57 -150 -65 -164 -7 -14 -42 -102 -78 -195 -91 -238 -133
-342 -157 -394 l-21 -45 -30 60 c-17 33 -34 71 -39 85 -4 14 -37 90 -74 170
-37 80 -93 206 -125 280 -87 203 -198 442 -218 470 -10 14 -38 35 -62 48 -40
20 -58 22 -199 22 l-155 0 45 -28z"/>
</g>
</svg>
